<svg xmlns="http://www.w3.org/2000/svg" width="64" height="64" viewBox="0 0 64 64">
  <ellipse cx="32" cy="59" rx="18" ry="3" fill="#000" opacity="0.18"/>
  <path d="M32 4 L40 18 L52 14 L46 28 L58 34 L46 40 L52 54 L40 50 L32 62 L24 50 L12 54 L18 40 L6 34 L18 28 L12 14 L24 18 Z" fill="#bfe6f8" stroke="#101018" stroke-width="2.4"/>
  <path d="M32 10 L26 20 L18 18 L22 28 L14 33 L32 33 Z" fill="#e2f5fd" opacity="0.9"/>
  <circle cx="26" cy="32" r="3.8" fill="#101018"/><circle cx="38" cy="32" r="3.8" fill="#101018"/>
  <circle cx="27.2" cy="30.8" r="1.3" fill="#fff"/><circle cx="39.2" cy="30.8" r="1.3" fill="#fff"/>
  <path d="M27 42 L37 42" stroke="#101018" stroke-width="2.4" stroke-linecap="round"/>
  <circle cx="20" cy="40" r="1.6" fill="#7cc4e8"/><circle cx="44" cy="40" r="1.6" fill="#7cc4e8"/>
</svg>
