<svg xmlns="http://www.w3.org/2000/svg" width="64" height="64" viewBox="0 0 64 64">
  <ellipse cx="32" cy="59" rx="20" ry="3.2" fill="#000" opacity="0.18"/>
  <path d="M10 52 Q8 32 20 24 Q28 18 32 18 Q36 18 44 24 Q56 32 54 52 Q54 58 46 58 L18 58 Q10 58 10 52 Z" fill="#4ca44c" stroke="#101018" stroke-width="2.5"/>
  <path d="M14 50 Q13 34 22 27 Q28 22 32 22 L32 58 L18 58 Q13 58 14 50 Z" fill="#63bc5e"/>
  <circle cx="20" cy="18" r="8" fill="#4ca44c" stroke="#101018" stroke-width="2.5"/>
  <circle cx="44" cy="18" r="8" fill="#4ca44c" stroke="#101018" stroke-width="2.5"/>
  <circle cx="20" cy="17" r="4.2" fill="#fff"/><circle cx="44" cy="17" r="4.2" fill="#fff"/>
  <circle cx="21" cy="17.6" r="2.4" fill="#101018"/><circle cx="43" cy="17.6" r="2.4" fill="#101018"/>
  <path d="M22 42 Q32 48 42 42" fill="none" stroke="#101018" stroke-width="2.4" stroke-linecap="round"/>
  <ellipse cx="26" cy="34" rx="2" ry="1.4" fill="#2e6b2e"/><ellipse cx="38" cy="34" rx="2" ry="1.4" fill="#2e6b2e"/>
  <path d="M10 54 Q4 50 6 44 Q10 48 14 48" fill="#3f8a3f" stroke="#101018" stroke-width="2.2"/>
  <path d="M54 54 Q60 50 58 44 Q54 48 50 48" fill="#3f8a3f" stroke="#101018" stroke-width="2.2"/>
</svg>
